<svg viewBox="0 0 18 18" xmlns="http://www.w3.org/2000/svg" xmlns:xlink="http://www.w3.org/1999/xlink" width="18.000000" height="18.000000" opacity="0.569999993" fill="none">
	<rect id="Icon / three dice  24  Outline" width="18.000000" height="18.000000" x="0.000000" y="0.000000" fill="rgb(255,255,255)" fill-opacity="0" />
	<path id="Vector" d="M9 8.25C8.85166 8.25 8.70666 8.29399 8.58332 8.3764C8.45999 8.45881 8.36386 8.57594 8.30709 8.71299C8.25032 8.85003 8.23547 9.00083 8.26441 9.14632C8.29335 9.2918 8.36478 9.42544 8.46967 9.53033C8.57456 9.63522 8.7082 9.70665 8.85368 9.73559C8.99917 9.76453 9.14997 9.74967 9.28701 9.69291C9.42406 9.63614 9.54119 9.54002 9.6236 9.41668C9.70601 9.29334 9.75 9.14834 9.75 9C9.75 8.80109 9.67098 8.61032 9.53033 8.46967C9.38968 8.32902 9.19891 8.25 9 8.25ZM6 5.25C5.85166 5.25 5.70666 5.29399 5.58332 5.3764C5.45999 5.45881 5.36386 5.57594 5.30709 5.71299C5.25032 5.85003 5.23547 6.00083 5.26441 6.14632C5.29335 6.2918 5.36478 6.42544 5.46967 6.53033C5.57456 6.63522 5.7082 6.70665 5.85368 6.73559C5.99917 6.76453 6.14997 6.74968 6.28701 6.69291C6.42406 6.63614 6.54119 6.54001 6.6236 6.41668C6.70601 6.29334 6.75 6.14834 6.75 6C6.75 5.80109 6.67098 5.61032 6.53033 5.46967C6.38968 5.32902 6.19891 5.25 6 5.25L6 5.25ZM12.75 1.5L5.25 1.5C4.25544 1.5 3.30161 1.89509 2.59835 2.59835C1.89509 3.30161 1.5 4.25544 1.5 5.25L1.5 12.75C1.5 13.7446 1.89509 14.6984 2.59835 15.4017C3.30161 16.1049 4.25544 16.5 5.25 16.5L12.75 16.5C13.7446 16.5 14.6984 16.1049 15.4017 15.4017C16.1049 14.6984 16.5 13.7446 16.5 12.75L16.5 5.25C16.5 4.25544 16.1049 3.30161 15.4017 2.59835C14.6984 1.89509 13.7446 1.5 12.75 1.5L12.75 1.5ZM15 12.75C15 13.3467 14.7629 13.919 14.341 14.341C13.919 14.7629 13.3467 15 12.75 15L5.25 15C4.65326 15 4.08097 14.7629 3.65901 14.341C3.23705 13.919 3 13.3467 3 12.75L3 5.25C3 4.65326 3.23705 4.08097 3.65901 3.65901C4.08097 3.23705 4.65326 3 5.25 3L12.75 3C13.3467 3 13.919 3.23705 14.341 3.65901C14.7629 4.08097 15 4.65326 15 5.25L15 12.75ZM12 11.25C11.8517 11.25 11.7067 11.294 11.5833 11.3764C11.46 11.4588 11.3639 11.5759 11.3071 11.713C11.2503 11.85 11.2355 12.0008 11.2644 12.1463C11.2934 12.2918 11.3648 12.4254 11.4697 12.5303C11.5746 12.6352 11.7082 12.7066 11.8537 12.7356C11.9992 12.7645 12.15 12.7497 12.287 12.6929C12.4241 12.6361 12.5412 12.54 12.6236 12.4167C12.706 12.2933 12.75 12.1483 12.75 12C12.75 11.8011 12.671 11.6103 12.5303 11.4697C12.3897 11.329 12.1989 11.25 12 11.25Z" fill="rgb(0,0,0)" fill-rule="evenodd" />
</svg>
