<svg viewBox="0 0 27 41" xmlns="http://www.w3.org/2000/svg" xmlns:xlink="http://www.w3.org/1999/xlink" width="27.000000" height="41.000000" fill="none" customFrame="#000000">
	<path id="矢量 4" d="M2 28.8108L25 28.8108C26.1046 28.8108 27 29.8031 27 31.027L27 38.7838C27 40.0078 26.1046 41 25 41L2 41C0.895447 41 0 40.0078 0 38.7838L0 31.027C0 29.8031 0.895447 28.8108 2 28.8108Z" fill="rgb(49,149,227)" fill-rule="evenodd" />
	<path id="矢量 4" d="M3 31.027L4 31.027L4 38.7838L3 38.7838C2.44769 38.7838 2 38.2877 2 37.6757L2 32.1351C2 31.5231 2.44769 31.027 3 31.027Z" fill="rgb(49,149,227)" fill-rule="evenodd" />
	<path id="矢量 4" d="M3 31.027L4 31.027L4 38.7838L3 38.7838C2.44769 38.7838 2 38.2877 2 37.6757L2 32.1351C2 31.5231 2.44769 31.027 3 31.027Z" fill="rgb(255,246,246)" fill-rule="evenodd" />
	<path id="矢量 4" d="M15 38.7838L14 38.7838L14 31.027L15 31.027C15.5523 31.027 16 31.5231 16 32.1351L16 37.6757C16 38.2877 15.5523 38.7838 15 38.7838Z" fill="rgb(49,149,227)" fill-rule="evenodd" />
	<path id="矢量 4" d="M15 38.7838L14 38.7838L14 31.027L15 31.027C15.5523 31.027 16 31.5231 16 32.1351L16 37.6757C16 38.2877 15.5523 38.7838 15 38.7838Z" fill="rgb(255,246,246)" fill-rule="evenodd" />
	<path id="矢量 4" d="M5 31.027L7 31.027L7 38.7838L5 38.7838L5 31.027Z" fill="rgb(49,149,227)" fill-rule="evenodd" />
	<path id="矢量 4" d="M5 31.027L7 31.027L7 38.7838L5 38.7838L5 31.027Z" fill="rgb(255,246,246)" fill-rule="evenodd" />
	<path id="矢量 4" d="M8 31.027L10 31.027L10 38.7838L8 38.7838L8 31.027Z" fill="rgb(49,149,227)" fill-rule="evenodd" />
	<path id="矢量 4" d="M8 31.027L10 31.027L10 38.7838L8 38.7838L8 31.027Z" fill="rgb(255,246,246)" fill-rule="evenodd" />
	<path id="矢量 4" d="M11 31.027L13 31.027L13 38.7838L11 38.7838L11 31.027Z" fill="rgb(49,149,227)" fill-rule="evenodd" />
	<path id="矢量 4" d="M11 31.027L13 31.027L13 38.7838L11 38.7838L11 31.027Z" fill="rgb(255,246,246)" fill-rule="evenodd" />
	<path id="矢量 4" d="M22.5 32.1351C23.3284 32.1351 24 32.8793 24 33.7973C24 34.7153 23.3284 35.4595 22.5 35.4595C21.6716 35.4595 21 34.7153 21 33.7973C21 32.8793 21.6716 32.1351 22.5 32.1351Z" fill="rgb(49,149,227)" fill-rule="evenodd" />
	<path id="矢量 4" d="M22.5 32.1351C23.3284 32.1351 24 32.8793 24 33.7973C24 34.7153 23.3284 35.4595 22.5 35.4595C21.6716 35.4595 21 34.7153 21 33.7973C21 32.8793 21.6716 32.1351 22.5 32.1351Z" fill="rgb(255,255,255)" fill-rule="evenodd" />
	<path id="矢量 4" d="M2 0L25 0C26.1046 0 27 0.992252 27 2.21622L27 9.97297C27 11.1969 26.1046 12.1892 25 12.1892L2 12.1892C0.895447 12.1892 0 11.1969 0 9.97297L0 2.21622C0 0.992252 0.895447 0 2 0Z" fill="rgb(49,149,227)" fill-rule="evenodd" />
	<path id="矢量 4" d="M2 0L25 0C26.1046 0 27 0.992252 27 2.21622L27 9.97297C27 11.1969 26.1046 12.1892 25 12.1892L2 12.1892C0.895447 12.1892 0 11.1969 0 9.97297L0 2.21622C0 0.992252 0.895447 0 2 0Z" fill="rgb(49,149,227)" fill-rule="evenodd" />
	<path id="矢量 4" d="M3 2.21622L4 2.21622L4 9.97297L3 9.97297C2.44769 9.97297 2 9.47688 2 8.86487L2 3.32432C2 2.71231 2.44769 2.21622 3 2.21622Z" fill="rgb(49,149,227)" fill-rule="evenodd" />
	<path id="矢量 4" d="M3 2.21622L4 2.21622L4 9.97297L3 9.97297C2.44769 9.97297 2 9.47688 2 8.86487L2 3.32432C2 2.71231 2.44769 2.21622 3 2.21622Z" fill="rgb(255,246,246)" fill-rule="evenodd" />
	<path id="矢量 4" d="M15 9.97297L14 9.97297L14 2.21622L15 2.21622C15.5523 2.21622 16 2.71231 16 3.32432L16 8.86487C16 9.47688 15.5523 9.97297 15 9.97297Z" fill="rgb(49,149,227)" fill-rule="evenodd" />
	<path id="矢量 4" d="M15 9.97297L14 9.97297L14 2.21622L15 2.21622C15.5523 2.21622 16 2.71231 16 3.32432L16 8.86487C16 9.47688 15.5523 9.97297 15 9.97297Z" fill="rgb(255,246,246)" fill-rule="evenodd" />
	<path id="矢量 4" d="M5 2.21622L7 2.21622L7 9.97297L5 9.97297L5 2.21622Z" fill="rgb(49,149,227)" fill-rule="evenodd" />
	<path id="矢量 4" d="M5 2.21622L7 2.21622L7 9.97297L5 9.97297L5 2.21622Z" fill="rgb(255,246,246)" fill-rule="evenodd" />
	<path id="矢量 4" d="M8 2.21622L10 2.21622L10 9.97297L8 9.97297L8 2.21622Z" fill="rgb(49,149,227)" fill-rule="evenodd" />
	<path id="矢量 4" d="M8 2.21622L10 2.21622L10 9.97297L8 9.97297L8 2.21622Z" fill="rgb(255,246,246)" fill-rule="evenodd" />
	<path id="矢量 4" d="M11 2.21622L13 2.21622L13 9.97297L11 9.97297L11 2.21622Z" fill="rgb(49,149,227)" fill-rule="evenodd" />
	<path id="矢量 4" d="M11 2.21622L13 2.21622L13 9.97297L11 9.97297L11 2.21622Z" fill="rgb(255,246,246)" fill-rule="evenodd" />
	<path id="矢量 4" d="M22.5 3.32432C23.3284 3.32432 24 4.0685 24 4.98649C24 5.90448 23.3284 6.64865 22.5 6.64865C21.6716 6.64865 21 5.90448 21 4.98649C21 4.0685 21.6716 3.32432 22.5 3.32432Z" fill="rgb(49,149,227)" fill-rule="evenodd" />
	<path id="矢量 4" d="M22.5 3.32432C23.3284 3.32432 24 4.0685 24 4.98649C24 5.90448 23.3284 6.64865 22.5 6.64865C21.6716 6.64865 21 5.90448 21 4.98649C21 4.0685 21.6716 3.32432 22.5 3.32432Z" fill="rgb(255,255,255)" fill-rule="evenodd" />
	<path id="矢量 4" d="M2 14.4054L25 14.4054C26.1046 14.4054 27 15.3977 27 16.6216L27 24.3784C27 25.6023 26.1046 26.5946 25 26.5946L2 26.5946C0.895447 26.5946 0 25.6023 0 24.3784L0 16.6216C0 15.3977 0.895447 14.4054 2 14.4054Z" fill="rgb(49,149,227)" fill-rule="evenodd" />
	<path id="矢量 4" d="M2 14.4054L25 14.4054C26.1046 14.4054 27 15.3977 27 16.6216L27 24.3784C27 25.6023 26.1046 26.5946 25 26.5946L2 26.5946C0.895447 26.5946 0 25.6023 0 24.3784L0 16.6216C0 15.3977 0.895447 14.4054 2 14.4054Z" fill="rgb(49,149,227)" fill-rule="evenodd" />
	<path id="矢量 4" d="M3 16.6216L4 16.6216L4 24.3784L3 24.3784C2.44769 24.3784 2 23.8823 2 23.2703L2 17.7297C2 17.1177 2.44769 16.6216 3 16.6216Z" fill="rgb(49,149,227)" fill-rule="evenodd" />
	<path id="矢量 4" d="M3 16.6216L4 16.6216L4 24.3784L3 24.3784C2.44769 24.3784 2 23.8823 2 23.2703L2 17.7297C2 17.1177 2.44769 16.6216 3 16.6216Z" fill="rgb(255,246,246)" fill-rule="evenodd" />
	<path id="矢量 4" d="M15 24.3784L14 24.3784L14 16.6216L15 16.6216C15.5523 16.6216 16 17.1177 16 17.7297L16 23.2703C16 23.8823 15.5523 24.3784 15 24.3784Z" fill="rgb(49,149,227)" fill-rule="evenodd" />
	<path id="矢量 4" d="M15 24.3784L14 24.3784L14 16.6216L15 16.6216C15.5523 16.6216 16 17.1177 16 17.7297L16 23.2703C16 23.8823 15.5523 24.3784 15 24.3784Z" fill="rgb(255,246,246)" fill-rule="evenodd" />
	<path id="矢量 4" d="M5 16.6216L7 16.6216L7 24.3784L5 24.3784L5 16.6216Z" fill="rgb(49,149,227)" fill-rule="evenodd" />
	<path id="矢量 4" d="M5 16.6216L7 16.6216L7 24.3784L5 24.3784L5 16.6216Z" fill="rgb(255,246,246)" fill-rule="evenodd" />
	<path id="矢量 4" d="M8 16.6216L10 16.6216L10 24.3784L8 24.3784L8 16.6216Z" fill="rgb(49,149,227)" fill-rule="evenodd" />
	<path id="矢量 4" d="M8 16.6216L10 16.6216L10 24.3784L8 24.3784L8 16.6216Z" fill="rgb(255,246,246)" fill-rule="evenodd" />
	<path id="矢量 4" d="M11 16.6216L13 16.6216L13 24.3784L11 24.3784L11 16.6216Z" fill="rgb(49,149,227)" fill-rule="evenodd" />
	<path id="矢量 4" d="M11 16.6216L13 16.6216L13 24.3784L11 24.3784L11 16.6216Z" fill="rgb(255,246,246)" fill-rule="evenodd" />
	<path id="矢量 4" d="M22.5 17.7297C23.3284 17.7297 24 18.4739 24 19.3919C24 20.3099 23.3284 21.0541 22.5 21.0541C21.6716 21.0541 21 20.3099 21 19.3919C21 18.4739 21.6716 17.7297 22.5 17.7297Z" fill="rgb(49,149,227)" fill-rule="evenodd" />
	<path id="矢量 4" d="M22.5 17.7297C23.3284 17.7297 24 18.4739 24 19.3919C24 20.3099 23.3284 21.0541 22.5 21.0541C21.6716 21.0541 21 20.3099 21 19.3919C21 18.4739 21.6716 17.7297 22.5 17.7297Z" fill="rgb(255,255,255)" fill-rule="evenodd" />
</svg>
